<?xml version="1.0" encoding="UTF-8"?>
<svg width="20" height="20" viewBox="0 0 20 20" fill="none" xmlns="http://www.w3.org/2000/svg">
  <path d="M5 5H16.6667L15.8333 12.5H5.83333L5 5Z" stroke="white" stroke-width="1.5"
    stroke-linecap="round" stroke-linejoin="round" />
  <path
    d="M7.5 16.6667C8.05228 16.6667 8.5 16.219 8.5 15.6667C8.5 15.1144 8.05228 14.6667 7.5 14.6667C6.94772 14.6667 6.5 15.1144 6.5 15.6667C6.5 16.219 6.94772 16.6667 7.5 16.6667Z"
    fill="white" />
  <path
    d="M14.1667 16.6667C14.719 16.6667 15.1667 16.219 15.1667 15.6667C15.1667 15.1144 14.719 14.6667 14.1667 14.6667C13.6144 14.6667 13.1667 15.1144 13.1667 15.6667C13.1667 16.219 13.6144 16.6667 14.1667 16.6667Z"
    fill="white" />
</svg> 