<svg preserveAspectRatio="none" width="100%" height="100%" overflow="visible" style="display: block;" viewBox="0 0 20 19" fill="none" xmlns="http://www.w3.org/2000/svg">
<g id="&#232;&#180;&#173;&#231;&#137;&#169;&#232;&#189;&#166;">
<path id="&#229;&#189;&#162;&#231;&#138;&#182;&#231;&#187;&#147;&#229;&#144;&#136;" fill-rule="evenodd" clip-rule="evenodd" d="M3.00758 4L1.71851 0.432764C1.59981 0.127984 1.30937 -0.0357057 1.09197 0.109381C0.874569 0.254467 0.770398 0.641779 0.889101 0.946559L2.21982 4.62905L5.56436 14.2H17.4455L19.8812 7.18C19.9406 6.94 20 6.7 20 6.4C20 5.08 18.9307 4 17.6238 4H3.00758ZM6.39604 13H16.6139L18.7525 6.82C18.8119 6.7 18.8119 6.58001 18.8119 6.40002V6.4C18.8119 5.74 18.2772 5.2 17.6238 5.2H3.72277L6.39604 13ZM4.9703 16.9C4.9703 18.04 5.92079 19 7.04951 19C8.23762 19 9.12871 18.04 9.12871 16.9C9.12871 15.76 8.17822 14.8 7.04951 14.8C5.92079 14.8 4.9703 15.76 4.9703 16.9ZM7.0495 16C6.57426 16 6.15842 16.42 6.15842 16.9C6.15842 17.38 6.57426 17.8 7.0495 17.8C7.52475 17.8 7.94059 17.38 7.94059 16.9C7.94059 16.42 7.58416 16 7.0495 16ZM13.8812 16.9C13.8812 18.04 14.8317 19 15.9604 19C17.1485 19 18.0396 18.04 18.0396 16.9C18.0396 15.76 17.0891 14.8 15.9604 14.8C14.8317 14.8 13.8812 15.76 13.8812 16.9ZM15.9604 16C15.4851 16 15.0693 16.42 15.0693 16.9C15.0693 17.38 15.4851 17.8 15.9604 17.8C16.4356 17.8 16.8515 17.38 16.8515 16.9C16.8515 16.42 16.495 16 15.9604 16Z" fill="var(--fill-0, white)"/>
</g>
</svg>
