<svg preserveAspectRatio="none" width="100%" height="100%" overflow="visible" style="display: block;" viewBox="0 0 18 18" fill="none" xmlns="http://www.w3.org/2000/svg">
<g id="&#228;&#186;&#140;&#231;&#187;&#180;&#231;&#160;&#129;">
<path id="&#229;&#189;&#162;&#231;&#138;&#182;" fill-rule="evenodd" clip-rule="evenodd" d="M6.66469 0H1.33294C0.597156 0 0 0.590769 0 1.31868V6.59341C0 7.32132 0.597156 7.91209 1.33294 7.91209H6.66469C7.40047 7.91209 7.99763 7.32132 7.99763 6.59341V1.31868C7.99763 0.590769 7.40047 0 6.66469 0ZM6.66469 1.31868V6.59341H1.33294V1.31868H6.66469ZM16.6671 6.59341V1.31868H11.3353V6.59341H16.6671ZM16.6671 0H11.3353C10.5995 0 10.0024 0.590769 10.0024 1.31868V6.59341C10.0024 7.32132 10.5995 7.91209 11.3353 7.91209H16.6671C17.4028 7.91209 18 7.32132 18 6.59341V1.31868C18 0.590769 17.4028 0 16.6671 0ZM6.66469 15.8242V10.5495H1.33294V15.8242H6.66469ZM6.66469 9.23077H1.33294C0.597156 9.23077 0 9.82154 0 10.5495V15.8242C0 16.5521 0.597156 17.1429 1.33294 17.1429H6.66469C7.40047 17.1429 7.99763 16.5521 7.99763 15.8242V10.5495C7.99763 9.82154 7.40047 9.23077 6.66469 9.23077ZM9.99171 15.8136C9.99171 16.2145 10.2583 16.4782 10.6635 16.4782C11.0047 16.4782 11.3353 16.1512 11.3353 15.8136V10.5389C11.3353 10.138 11.0687 9.87429 10.6635 9.87429C10.2583 9.87429 9.99171 10.138 9.99171 10.5389V15.8136ZM13.9372 16.4782C13.532 16.4782 13.2654 16.2145 13.2654 15.8136V10.5389C13.2654 10.138 13.532 9.87429 13.9372 9.87429C14.3424 9.87429 14.609 10.138 14.609 10.5389V15.8136C14.5983 16.1512 14.2678 16.4782 13.9372 16.4782ZM16.6564 15.8136C16.6564 16.2145 16.923 16.4782 17.3282 16.4782C17.6694 16.4782 18 16.1512 18 15.8136V10.5389C18 10.138 17.7334 9.87429 17.3282 9.87429C16.923 9.87429 16.6564 10.138 16.6564 10.5389V15.8136Z" fill="var(--fill-0, #8C8C8C)"/>
</g>
</svg>
