<svg preserveAspectRatio="none" width="100%" height="100%" overflow="visible" style="display: block;" viewBox="0 0 18 19" fill="none" xmlns="http://www.w3.org/2000/svg">
<g id="&#230;&#144;&#156;&#231;&#180;&#162; (3)">
<path id="&#229;&#189;&#162;&#231;&#138;&#182;" fill-rule="evenodd" clip-rule="evenodd" d="M14.2477 13.7799L17.7669 17.3056C18.0804 17.6197 18.0773 18.1257 17.7599 18.436C17.4426 18.7462 16.9312 18.7432 16.6177 18.4291L13.0985 14.9034C13.0339 14.8387 12.9861 14.7646 12.9484 14.6869C11.6057 15.6407 9.96198 16.2046 8.18682 16.2046C3.67262 16.2046 0 12.5698 0 8.10227C0 3.63469 3.67262 0 8.18682 0C12.701 0 16.3736 3.63469 16.3736 8.10227C16.3736 10.2603 15.515 12.2224 14.1202 13.676C14.1662 13.7063 14.2089 13.7411 14.2477 13.7799ZM8.18682 1.38903C4.44634 1.38903 1.40352 4.40042 1.40352 8.10227C1.40352 11.8041 4.44634 14.8155 8.18682 14.8155C11.9273 14.8155 14.9701 11.8041 14.9701 8.10227C14.9701 4.40042 11.9273 1.38903 8.18682 1.38903Z" fill="var(--fill-0, #666666)"/>
</g>
</svg>
