<svg preserveAspectRatio="none" width="100%" height="100%" overflow="visible" style="display: block;" viewBox="0 0 24 24" fill="none" xmlns="http://www.w3.org/2000/svg">
<g id="&#230;&#148;&#175;&#228;&#187;&#152;&#229;&#174;&#157; 1">
<path id="Vector" d="M22.8 15.9001L15.852 13.5637C15.852 13.5637 16.386 12.7644 16.956 11.1973C17.526 9.63016 17.6077 8.76961 17.6077 8.76961L13.11 8.73254V7.19635L18.5569 7.15795V6.07193H13.109V3.59989H10.4412V6.07204H5.35917V7.15807L10.4412 7.12196V8.76961H6.36482V9.63005H14.7553C14.7553 9.63005 14.6629 10.3284 14.3413 11.1972C14.0197 12.066 13.6884 12.8268 13.6884 12.8268C13.6884 12.8268 9.74879 11.448 7.67279 11.448C5.5968 11.448 3.07196 12.282 2.82716 14.7024C2.58353 17.1217 4.00327 18.4321 6.00347 18.9145C8.00391 19.3993 9.8507 18.9097 11.4586 18.1225C13.0668 17.3365 14.6447 15.5496 14.6447 15.5496L22.7423 19.4821C22.412 21.4007 20.7471 22.8019 18.8003 22.8H5.19962C2.9927 22.8022 1.20205 21.0148 1.2 18.8079V5.19973C1.19795 2.99264 2.98552 1.20197 5.19239 1.2H18.8004C21.0073 1.19798 22.798 2.98544 22.8 5.19234L22.8 15.9001ZM12.6737 14.5464C12.6737 14.5464 10.146 17.7375 7.16767 17.7375C4.18807 17.7375 3.56252 16.2213 3.56252 15.1308C3.56252 14.0416 4.18193 12.8566 6.71709 12.6852C9.25084 12.5141 12.675 14.5464 12.675 14.5464H12.6737H12.6737Z" fill="var(--fill-0, #02A9F1)"/>
</g>
</svg>
