<svg preserveAspectRatio="none" width="100%" height="100%" overflow="visible" style="display: block;" viewBox="0 0 24 12" fill="none" xmlns="http://www.w3.org/2000/svg">
<g id="&#233;&#147;&#182;&#232;&#129;&#148; 1">
<path id="Vector" d="M6.21217 0.0143906H21.8183C22.0314 0.0518688 22.2226 0.163918 22.3552 0.32903C22.4879 0.494142 22.5526 0.70068 22.537 0.909L19.2209 11.3501C19.1076 11.528 18.9515 11.6769 18.7659 11.7843C18.5803 11.8917 18.3706 11.9544 18.1546 11.9671H2.00035C1.57384 11.926 1.39684 11.5764 1.47787 10.9183L4.69165 0.822621C5.0094 0.324926 5.52123 0.0555234 6.2207 0L6.21217 0.0143906Z" fill="var(--fill-0, #00908C)"/>
<path id="Vector_2" d="M6.22923 0.0143906H10.8441C10.1425 0.0658125 9.63068 0.333164 9.31294 0.837023L6.11407 10.9285C6.0309 11.5866 6.20364 11.9342 6.63441 11.9753H2.0153C1.58451 11.928 1.41177 11.5805 1.49281 10.9224L4.69165 0.822621C5.0094 0.324926 5.52123 0.0555234 6.22284 0L6.22923 0.0143906Z" fill="var(--fill-0, #E60012)"/>
<path id="Vector_3" d="M10.8441 0.0143906H16.5232C15.8215 0.0658125 15.3097 0.333164 14.992 0.837023L11.7931 10.9285C11.7099 11.5866 11.8848 11.9342 12.3156 11.9753H6.63229C6.20578 11.9356 6.03162 11.5866 6.10982 10.9285L9.31294 0.822633C9.63068 0.324926 10.1425 0.0555117 10.8441 0V0.0143906Z" fill="var(--fill-0, #00508E)"/>
<path id="Vector_4" d="M5.71103 3.27814C5.704 3.31989 5.69403 3.36111 5.68117 3.40154C5.44658 4.16864 5.21626 5.19896 5.24399 5.33059C5.33143 5.71723 5.90508 5.68637 6.11407 5.28536C6.18445 5.1743 6.61096 3.38098 6.61096 3.25553C6.61096 3.25553 7.29979 3.25553 7.30618 3.2658C7.30421 3.28474 7.29991 3.30338 7.29339 3.32134C7.29339 3.34807 7.17396 3.76555 7.04601 4.24884C6.77304 5.28947 6.73678 5.3964 6.5939 5.6C6.12474 6.26838 4.56157 6.24782 4.43361 5.57121C4.40589 5.41902 4.74284 3.7203 4.89211 3.2658C5.16423 3.24725 5.4375 3.25138 5.70889 3.27814H5.71103ZM16.1201 3.27814C15.8369 3.24852 15.5518 3.2389 15.2671 3.24935H14.5313V3.28226C14.5313 3.30077 14.478 3.51877 13.8681 6.04421C14.1073 6.09153 14.354 6.09153 14.5932 6.04421C14.5932 6.02776 14.6273 5.8982 14.655 5.75836C14.8128 5.02622 14.7936 5.06119 15.0367 5.06119C15.8407 5.06119 16.295 4.82057 16.5125 4.28175C16.73 3.74293 16.5871 3.37686 16.1201 3.27816V3.27814ZM15.0879 4.60463H14.9344L15.0453 4.13779C15.1476 3.70385 15.1562 3.66889 15.186 3.67506C15.2159 3.68122 15.3161 3.68946 15.4355 3.69768C16.2075 3.75322 15.8684 4.62519 15.0879 4.60463ZM9.83967 4.24884C9.93777 4.27352 10.0167 4.34962 10.0167 4.41543C10.0167 4.66015 9.49633 4.82673 9.30653 4.64576C9.11673 4.46478 9.50486 4.16864 9.83967 4.24884ZM8.03339 4.43599C8.03258 4.46449 8.02829 4.49279 8.02059 4.52031V4.56144L8.14215 4.50179C8.4663 4.34345 8.78192 4.37224 8.88642 4.56761C8.9504 4.68483 8.94399 4.75475 8.7798 5.48483C8.74994 5.61646 8.71369 5.79332 8.69874 5.87558C8.66249 6.08123 8.69874 6.05862 8.32556 6.06478C8.0142 6.06478 8.0142 6.06478 8.01847 6.03599C8.02273 6.0072 8.05684 5.85913 8.0995 5.67609C8.26584 4.97686 8.26797 4.87815 8.12509 4.87815C8.04619 4.87815 7.93316 4.92545 7.92463 4.95836C7.90969 5.02622 7.72417 5.88175 7.71136 5.96606L7.69218 6.0545H7.37443C6.9863 6.06684 7.01403 6.09769 7.10146 5.7563C7.21022 5.32443 7.2742 5.02005 7.31471 4.74859C7.35523 4.47713 7.32964 4.48535 7.61967 4.44011C7.75189 4.42159 7.88838 4.39897 7.92249 4.38868C8.02273 4.36607 8.04618 4.37224 8.04406 4.42571L8.03339 4.43599ZM12.8679 4.42777C12.8661 4.45673 12.8625 4.48557 12.8573 4.51413L12.8445 4.56349L12.966 4.50386C13.6058 4.18714 13.8446 4.44833 13.6591 5.24627C13.6165 5.42725 13.561 5.67609 13.5397 5.79948C13.5265 5.88197 13.5058 5.96318 13.4778 6.04216C13.2662 6.07777 13.0497 6.07777 12.8381 6.04216C12.8381 6.02571 12.8743 5.86736 12.9191 5.69048C13.0897 4.97481 13.0918 4.88227 12.9426 4.8802C12.7933 4.87814 12.7549 4.91929 12.7293 5.0036C12.7037 5.08792 12.548 5.82622 12.516 5.95167L12.4947 6.05655H12.177C11.7888 6.06684 11.8187 6.10385 11.9104 5.73779C12.0021 5.37173 12.0874 4.97892 12.1237 4.70951C12.1599 4.44009 12.1237 4.48535 12.3881 4.44833C12.5033 4.42982 12.6397 4.4072 12.6909 4.39486C12.821 4.36813 12.8466 4.37224 12.8445 4.41748L12.8679 4.42777ZM19.0566 4.41131C19.0929 5.01389 19.1057 5.19075 19.1121 5.19691C19.1854 5.08789 19.2503 4.97378 19.3062 4.85552C19.5194 4.46067 19.4682 4.50386 19.6943 4.47301C19.7561 4.47301 19.8777 4.44422 19.9651 4.42777C20.1784 4.38252 20.1784 4.36812 19.931 4.79795C19.5834 5.37789 19.1036 6.19229 18.933 6.49049C18.4147 7.4036 18.419 7.4036 17.9733 7.4036H17.7131L17.7366 7.33163C17.7494 7.29254 17.7728 7.21028 17.792 7.14858L17.8262 7.04164H17.9136C18.0074 7.04164 18.0245 7.02725 18.1119 6.88329L18.2164 6.71259C18.2463 6.66736 18.3444 6.50694 18.4297 6.34859L18.596 6.07095L18.5534 5.71516C18.5022 5.28946 18.4382 4.79589 18.4105 4.64164C18.3828 4.4874 18.387 4.50797 18.5725 4.48124C18.6515 4.4689 18.7858 4.44627 18.8583 4.42982C19.0204 4.39691 19.0481 4.39486 19.0588 4.4113L19.0566 4.41131Z" fill="var(--fill-0, white)"/>
<path id="Vector_5" d="M11.3794 4.42982C10.6394 4.2982 10.0593 4.78972 10.0615 5.54447C10.0615 5.98047 10.4581 6.19434 11.036 6.0689C11.8891 5.88792 12.1663 4.56967 11.3794 4.42982ZM11.1128 5.39434C11.036 5.64319 10.874 5.78304 10.7631 5.69871C10.6138 5.58766 10.7908 4.87609 10.987 4.80411C11.1832 4.73214 11.2557 4.93574 11.1128 5.39434ZM17.8283 4.47095C17.4231 4.53676 17.4274 4.5347 17.421 4.57378C17.4146 4.61286 17.421 4.60462 17.3655 4.55321C17.3296 4.51654 17.2869 4.48657 17.2397 4.46479C16.6532 4.19948 15.8471 5.36145 16.2353 5.90438C16.3909 6.11003 16.9369 6.19434 17.052 6.01542C17.0712 5.98458 17.0925 6.00103 17.0883 6.0401V6.08329H17.421C17.8176 6.08329 17.7664 6.12442 17.8347 5.77481C17.8773 5.54036 17.9882 5.06119 18.1247 4.51003C18.1439 4.41954 18.1567 4.42159 17.8283 4.47095ZM16.8601 5.7275C16.7001 5.64524 16.8601 4.95013 17.0606 4.85141C17.212 4.77738 17.325 4.86375 17.325 5.05707C17.325 5.46015 17.0606 5.83034 16.8601 5.7275ZM9.92713 4.7527C9.92917 4.78406 9.92482 4.8155 9.91433 4.84525C9.83756 5.15989 9.68827 5.79332 9.66482 5.91259L9.6371 6.0545H9.30228C8.90136 6.06478 8.92695 6.08123 9.00586 5.84884C9.0894 5.58856 9.15214 5.32249 9.19352 5.05296C9.23191 4.80206 9.19352 4.8473 9.48355 4.79589C9.62004 4.77737 9.75865 4.75475 9.79278 4.74653C9.86741 4.73007 9.91646 4.72801 9.92713 4.74653V4.7527ZM11.7121 6.78663C11.7012 6.82015 11.6854 6.85201 11.6652 6.88124C11.6417 6.92647 11.6182 6.96556 11.6182 6.96967C12.2196 6.98201 12.2431 6.98201 12.2346 7.00669L12.1279 7.35629H11.2557L11.2067 7.39949C11.0979 7.50026 10.4987 7.62571 10.4987 7.54755L10.6095 7.19795H10.6906C10.8292 7.19795 10.8654 7.16916 10.987 6.95938L11.0894 6.76607C11.2963 6.75243 11.5041 6.75794 11.71 6.78252L11.7121 6.78663ZM14.5143 6.77429H14.0878C13.512 6.77429 13.3243 6.80925 13.0983 6.95322C13.0633 6.97926 13.0254 7.00134 12.9852 7.01903C12.993 6.98218 13.003 6.94578 13.0151 6.91003C13.0284 6.87168 13.0391 6.83251 13.0471 6.7928C12.8687 6.7701 12.688 6.7701 12.5097 6.7928C12.499 6.81131 11.7697 9.15166 11.7355 9.27713C11.6652 9.5383 11.7483 9.57532 12.3924 9.56504H12.6931L12.7549 9.35938C12.8274 9.12082 12.8423 9.14139 12.6056 9.15373C12.3071 9.18252 12.3135 9.2257 12.5161 8.59023L12.6184 8.26118H13.7849L13.883 8.21595C13.9963 8.16629 14.0861 8.0775 14.1347 7.9671C14.188 7.85604 14.5271 6.78663 14.5143 6.77429ZM13.5973 7.89923H12.7251L12.7698 7.74499H13.6527L13.5973 7.89923ZM13.7785 7.36247H13.5184C13.3226 7.34873 13.127 7.39247 12.9575 7.48792C12.885 7.52288 12.8317 7.54344 12.836 7.53315C12.8402 7.52286 12.8658 7.44268 12.8935 7.35629L12.949 7.1815C13.2406 7.15682 13.5339 7.15682 13.8255 7.1815C13.8141 7.24277 13.7984 7.30323 13.7785 7.36247ZM17.5916 7.51671H16.6767L16.6341 7.69152L16.5786 7.86838H16.9028C17.011 7.866 17.1193 7.87082 17.2269 7.88278C17.2269 7.88278 17.2077 7.9527 17.1437 8.1563H16.4741L16.4208 8.32905C16.3611 8.53471 16.3355 8.50591 16.6682 8.50591H16.9433L16.8089 8.68895C16.4827 9.13316 16.489 9.127 16.4144 9.16195C16.3629 9.1867 16.3055 9.19805 16.2481 9.19486C16.1414 9.19486 16.1414 9.19486 16.1734 9.10849C16.2054 9.02213 16.1969 9.03033 16.1094 9.03033C16.022 9.03033 16.0412 9.03033 16.0476 9.00361C16.1222 8.77533 16.617 7.18355 16.617 7.17943C16.6509 7.17421 16.6855 7.17421 16.7194 7.17943H16.8175L16.8494 7.08483L16.8793 6.99229V7.11979C16.8793 7.3892 16.9603 7.4324 17.4274 7.42211H17.6086L17.662 7.24525L17.7174 7.07044H17.6257C17.4956 7.05398 17.4871 7.04576 17.4871 6.90591V6.76607H17.212C16.3781 6.76607 15.9708 6.80102 15.7981 6.8874C15.6659 6.95115 15.6659 6.95115 15.7 6.85656C15.71 6.83189 15.7179 6.80643 15.7234 6.78046C15.629 6.76608 15.5332 6.76126 15.4377 6.76607H15.1413L15.1007 6.88947C15.0815 6.95938 14.9301 7.44267 14.446 8.98921C14.4226 9.05706 14.4183 9.06118 14.3693 9.06118C14.3202 9.06118 14.3096 9.06118 14.252 9.23599L14.1965 9.40874C14.1965 9.43342 14.2242 9.43548 14.7574 9.43548C15.3972 9.43548 15.3311 9.43548 15.3033 9.52185V9.55682H15.8727L15.8855 9.49923C15.9026 9.44371 15.9026 9.44371 15.9836 9.44371C16.0647 9.44371 16.0647 9.44371 16.0519 9.48278C16.0177 9.56504 16.0156 9.56504 16.2886 9.56504C16.7151 9.56504 16.7407 9.5527 17.0755 9.11054L17.1992 8.94807L17.2333 9.16813C17.2866 9.49717 17.3485 9.54859 17.6875 9.54859H17.8773L17.9371 9.35733C18.0074 9.12288 18.0117 9.15166 17.9051 9.15166C17.7984 9.15166 17.7729 9.15166 17.7302 8.88638L17.7003 8.63753H17.4423L17.4892 8.57789L17.5383 8.51824H18.2122L18.2612 8.36401C18.3252 8.15835 18.3486 8.18098 18.001 8.18098H17.7003V8.13984C17.7003 8.11723 17.7259 8.05553 17.7792 7.9054H18.3956L18.4489 7.74087C18.4766 7.65039 18.5001 7.57223 18.5001 7.56401C18.5001 7.55578 18.0927 7.51671 17.5916 7.51671ZM15.4675 9.04884L15.024 9.0365L15.1498 8.62519L15.5934 8.6478C15.5891 8.65809 15.5678 8.7527 15.4675 9.04884ZM15.7917 8.00822C15.7704 8.07403 15.749 8.14396 15.7426 8.16865C15.7362 8.19334 15.7256 8.22416 15.5891 8.24679C15.5082 8.26339 15.429 8.28679 15.3524 8.31672C15.314 8.33623 15.2731 8.35075 15.2308 8.3599C15.2308 8.3599 15.2671 8.25295 15.3033 8.13368C15.3396 8.01441 15.3737 7.91156 15.3758 7.90335C15.4521 7.89324 15.5292 7.8898 15.6062 7.89306H15.8194L15.7917 8.00822ZM15.9495 7.50026L15.8322 7.52082C15.7528 7.53271 15.6748 7.5527 15.5998 7.58047C15.5358 7.60309 15.4782 7.62365 15.4718 7.62365C15.4874 7.54752 15.5088 7.47259 15.5358 7.39949L15.604 7.17327H15.8173C15.8885 7.17129 15.9598 7.17473 16.0305 7.18355C16.0305 7.18355 15.9538 7.49203 15.9495 7.4982V7.50026ZM12.1109 7.62366L12.0021 7.9671H11.3879C11.3261 8.15835 11.3026 8.22622 11.2984 8.23856C11.2941 8.2509 11.3133 8.26529 11.6012 8.26529C11.7059 8.26038 11.8109 8.2652 11.9147 8.2797C11.9115 8.29861 11.9065 8.3172 11.8997 8.33522C11.8805 8.3928 11.8614 8.45039 11.8443 8.51003L11.8038 8.64164H11.164L11.0936 8.87198C10.987 9.2072 10.9977 9.21748 11.3901 9.16195C11.5521 9.14139 11.5457 9.12905 11.4732 9.35527L11.4135 9.54859H10.987C10.3195 9.54859 10.3067 9.53214 10.4837 8.97275C10.5392 8.79795 10.584 8.64987 10.584 8.64782C10.5272 8.64331 10.4701 8.64331 10.4133 8.64782C10.3563 8.65147 10.2989 8.64802 10.2427 8.63753C10.3174 8.3928 10.3408 8.3126 10.3451 8.2982C10.3494 8.2838 10.375 8.27147 10.5306 8.27147H10.7055L10.7908 7.97326H10.6245C10.5008 7.97326 10.4603 7.97326 10.4603 7.9527C10.4603 7.93213 10.552 7.64421 10.5648 7.62365C10.5776 7.60308 12.113 7.60925 12.1023 7.62365L12.1109 7.62366Z" fill="var(--fill-0, white)"/>
<path id="Vector_6" d="M14.075 8.33727C14.075 8.35167 14.0579 8.41131 14.0451 8.46889C13.9854 8.74241 13.9044 8.80411 13.5717 8.82262C13.5003 8.8248 13.4291 8.83099 13.3584 8.84114C13.334 8.94123 13.334 9.04541 13.3584 9.1455L13.3861 9.18457H13.5866C13.6534 9.18042 13.7203 9.18042 13.7871 9.18457C13.7871 9.20102 13.6783 9.54448 13.6676 9.56093C13.4251 9.57712 13.1814 9.56954 12.9404 9.53831C12.8146 9.49923 12.8167 9.51157 12.8317 8.8946L12.8466 8.34961H13.3669V8.55527H13.4672C13.5823 8.55527 13.593 8.55527 13.6399 8.40719L13.6655 8.32905H13.8788C14.0707 8.32905 14.092 8.32905 14.0792 8.35577L14.075 8.33727Z" fill="var(--fill-0, white)"/>
</g>
</svg>
