<svg preserveAspectRatio="none" width="100%" height="100%" overflow="visible" style="display: block;" viewBox="0 0 24 24" fill="none" xmlns="http://www.w3.org/2000/svg">
<g id="&#229;&#190;&#174;&#228;&#191;&#161; (2) 1" clip-path="url(#clip0_0_108)">
<path id="Vector" d="M24 14.52C24 11.16 20.76 8.52 16.8 8.52C12.84 8.52 9.6 11.16 9.6 14.52C9.6 17.88 12.84 20.52 16.8 20.52C17.52 20.52 18.24 20.4 18.96 20.28L21.24 21.48L20.64 19.68C22.68 18.48 24 16.68 24 14.52ZM14.28 13.56C13.56 13.56 13.08 13.08 13.08 12.36C13.08 11.64 13.56 11.16 14.28 11.16C15 11.16 15.48 11.64 15.48 12.36C15.48 12.96 14.88 13.56 14.28 13.56ZM19.2 13.56C18.48 13.56 18 13.08 18 12.36C18 11.64 18.48 11.16 19.2 11.16C19.92 11.16 20.4 11.64 20.4 12.36C20.4 12.96 19.8 13.56 19.2 13.56Z" fill="var(--fill-0, #4CBF00)"/>
<path id="Vector_2" d="M8.4 14.28C8.4 10.56 12 7.56 16.56 7.56H16.92C15.96 4.44 12.72 2.04 8.64 2.04C3.84 2.04 0 5.28 0 9.24C0 11.76 1.56 14.04 3.96 15.24L3.24 17.4L6 16.08C6.84 16.32 7.68 16.44 8.64 16.44H8.88C8.52 15.72 8.4 15 8.4 14.28ZM11.64 4.56C12.48 4.56 13.2 5.28 13.2 6.12C13.2 6.96 12.48 7.68 11.64 7.68C10.8 7.56 10.08 6.84 10.08 6C10.08 5.16 10.8 4.56 11.64 4.56ZM5.76 7.56C4.92 7.56 4.32 6.84 4.32 6C4.32 5.16 5.04 4.44 5.88 4.44C6.72 4.44 7.32 5.16 7.32 6C7.32 6.84 6.6 7.56 5.76 7.56Z" fill="var(--fill-0, #4CBF00)"/>
</g>
<defs>
<clipPath id="clip0_0_108">
<rect width="24" height="24" fill="white"/>
</clipPath>
</defs>
</svg>
